<?xml version="1.0" encoding="UTF-8"?>
<svg width="251px" height="274px" viewBox="0 0 251 251" version="1.1" xmlns="http://www.w3.org/2000/svg" xmlns:xlink="http://www.w3.org/1999/xlink">
    <!-- Generator: Sketch 47.1 (45422) - http://www.bohemiancoding.com/sketch -->
    <title>DRH 1935 cmyk Logo 2</title>
    <desc>Created with Sketch.</desc>
    <defs></defs>
    <g id="Page-1" stroke="none" stroke-width="1" fill="none" fill-rule="evenodd">
        <g id="DRH-1935-cmyk-Logo-2">
            <g id="Group-4" transform="translate(0.000000, 69.000000)">
                <path d="M143.18,120.029 C143.075,119.318 143.205,118.61 143.294,117.898 C143.648,115.049 143.826,107.391 143.826,107.391 C143.826,107.391 150.238,109.883 152.909,104.363 C156.114,103.651 155.402,98.129 153.444,95.636 C151.484,93.144 150.238,89.225 150.238,88.336 C150.238,87.446 151.661,86.375 151.661,86.375 C151.661,86.375 149.703,84.061 149.168,81.568 C148.635,79.074 145.606,76.939 145.606,76.939 C144.538,75.692 144.182,75.513 141.51,74.801 C137.593,74.446 131.005,75.692 128.688,77.116 C128.688,76.404 126.017,75.87 122.457,76.76 C118.894,77.65 114.801,79.966 113.732,82.814 C116.224,86.911 116.58,91.185 117.471,92.075 C121.032,94.033 121.922,85.663 122.99,86.555 C124.058,87.446 122.813,92.965 122.278,93.321 C121.743,93.678 116.758,93.678 113.908,92.787 C111.058,91.897 107.32,85.307 107.32,85.307 C107.32,85.307 111.058,84.417 110.881,83.349 C110.704,82.281 104.115,80.143 103.047,80.143 C101.977,80.143 99.661,82.993 99.661,84.597 C99.661,86.197 104.828,92.787 106.429,94.389 C108.031,95.993 106.25,96.882 103.757,100.444 C101.266,104.006 99.307,110.061 98.239,113.801 C97.839,115.195 97.613,116.759 97.488,118.316 C97.488,118.316 97.465,119.202 97.584,120.509 C97.705,121.814 98.654,123.122 97.942,124.96 C97.227,126.801 97.465,128.699 97.465,128.699 C97.465,128.699 97.11,134.815 96.634,136.239 C96.161,137.664 96.278,138.258 95.685,139.207 C95.092,140.157 94.913,140.692 94.734,141.88 C94.557,143.065 96.219,142.828 96.219,142.828 C96.219,142.828 97.762,143.6 99.247,142.946 C99.722,143.48 101.977,142.946 102.215,142.176 C102.215,142.176 104.412,142.888 104.412,142.058 C104.412,141.225 103.581,138.97 103.104,138.317 C102.631,137.664 103.165,136.122 103.165,135.171 C103.165,134.222 103.402,129.947 103.7,128.998 C103.997,128.048 104.47,127.453 104.293,126.504 C104.115,125.555 104.233,124.307 104.233,123.062 C104.233,121.814 106.592,119.75 106.592,119.75 C107.257,118.659 107.677,117.655 107.677,116.651 C107.677,115.049 112.661,118.787 114.085,120.391 C114.827,121.221 114.752,124.019 114.508,126.517 C114.508,126.517 113.851,129.414 114.324,135.884 C114.801,142.353 114.266,145.738 114.266,145.738 C114.266,145.738 113.196,150.665 112.722,150.961 C112.247,151.257 112.959,151.911 113.967,151.969 C114.978,152.03 117.766,152.327 118.3,152.208 C118.836,152.088 119.547,151.851 119.547,151.851 C119.547,151.851 121.805,152.564 122.813,151.554 C122.636,151.732 124.237,151.851 125.009,151.376 C125.781,150.901 126.433,151.316 125.722,150.01 C125.009,148.705 124.297,147.339 124.237,146.152 C124.179,144.965 123.703,144.014 123.703,143.423 C123.703,142.828 123.467,140.395 123.643,140.157 C123.821,139.919 126.433,140.632 126.968,140.038 C127.501,139.445 129.105,140.276 129.344,139.327 C129.582,138.376 129.521,137.366 127.621,136.18 C125.722,134.993 125.128,133.391 125.128,133.391 C125.128,133.391 123.703,130.006 124.12,127.513 C124.12,127.513 126.078,127.987 127.265,126.921 C128.452,125.85 128.333,126.565 128.809,126.86 C129.284,127.157 130.291,127.572 134.032,123.952 L134.032,125.08 C134.032,125.08 133.912,128.879 134.328,132.145 C134.746,135.408 133.795,135.944 133.795,136.774 C133.795,137.604 134.211,142.058 134.032,142.828 C133.853,143.6 133.499,145.084 133.676,145.677 C133.853,146.272 134.685,146.094 134.685,146.094 C134.685,146.094 134.746,148.526 136.112,148.645 C137.473,148.765 142.461,149.003 142.045,148.231 C142.818,148.526 146.617,148.587 146.617,147.874 C146.617,147.161 148.04,147.815 147.923,146.569 C147.804,145.321 145.844,143.778 144.301,143.007 C142.758,142.234 141.51,140.157 142.045,135.706 C142.58,131.252 142.521,128.879 142.996,127.099 C143.47,125.317 143.662,123.227 143.18,120.029" id="Fill-1" fill="#00A3DA"></path>
                <path d="M243.51,40.923 C239.252,41.932 236.416,42.947 229.942,44.568 C223.456,46.187 217.585,44.568 213.736,44.166 C209.884,43.758 204.424,37.682 200.783,35.859 C197.132,34.036 190.855,28.977 186.199,27.554 C181.545,26.137 174.252,22.897 169.995,22.293 C165.745,21.685 145.691,23.302 138,23.302 C130.301,23.302 117.948,23.707 109.449,23.707 C100.945,23.707 88.989,22.897 83.118,22.897 C77.238,22.897 74.005,20.469 70.963,19.255 C67.926,18.039 61.043,11.354 58.616,9.942 C56.188,8.519 51.125,3.458 48.082,1.228 C45.046,-0.996 42.211,0.824 38.769,1.228 C35.328,1.635 28.434,2.65 25.201,4.267 C21.958,5.887 20.135,11.558 17.095,14.191 C14.056,16.823 8.184,20.154 3.728,21.076 C-2.149,22.293 0.286,26.137 1.907,27.962 C3.53,29.783 5.348,31.201 8.392,32.215 C11.429,33.227 15.878,31.81 19.321,31.81 C22.773,31.81 16.693,35.452 14.663,36.466 C12.642,37.48 13.448,40.111 14.663,42.136 C15.878,44.166 18.924,43.353 21.958,42.541 C25.003,41.736 27.427,39.706 30.063,37.885 C32.693,36.061 35.328,37.276 38.155,37.48 C40.998,37.682 43.226,47.809 43.424,51.049 C43.633,54.29 48.288,52.465 49.304,50.848 C50.309,49.225 50.916,49.424 52.537,50.848 C54.159,52.263 59.422,56.109 61.043,58.337 C62.666,60.566 64.088,63.402 65.092,66.64 C66.108,69.882 70.363,80.815 72.185,83.649 C74.005,86.487 75.218,87.702 75.218,90.739 C75.218,93.776 72.386,98.842 68.744,102.688 C65.092,106.537 63.877,109.573 60.845,112.813 C57.811,116.052 57.192,119.295 56.188,123.144 C55.175,126.99 50.916,131.645 47.674,133.471 C44.441,135.292 42.013,134.277 40.998,134.887 C39.984,135.496 42.013,139.546 43.424,140.961 C44.846,142.379 54.159,140.555 57.602,140.555 C61.043,140.555 59.422,138.532 59.631,134.277 C59.83,130.027 61.651,130.635 65.501,127.798 C69.35,124.962 70.963,124.158 73.191,121.115 C75.065,118.572 76.242,118.712 79.064,117.881 C81.591,115.905 83.533,112.916 84.743,108.764 C85.946,104.636 87.872,101.671 89.122,97.293 C90.371,92.914 90.371,92.079 90.371,92.079 C90.371,92.079 88.705,91.038 91.204,87.284 C93.709,83.532 95.17,78.941 95.17,77.066 C95.17,75.189 93.918,73.315 98.296,70.184 C102.674,67.055 109.973,63.931 113.519,63.511 C117.061,63.096 121.441,62.679 124.987,63.511 C128.53,64.346 137.496,67.266 141.878,65.598 C146.254,63.931 148.546,63.721 148.338,61.008 C148.131,58.3 147.506,56.841 148.338,55.587 C149.173,54.34 149.379,50.379 149.588,48.292 C147.297,51.42 145.002,54.13 145.212,51.628 C145.417,49.125 145.837,47.041 145.417,45.373 C145.002,43.703 143.543,40.994 145.212,39.743 C146.878,38.492 149.798,38.073 151.261,37.03 C152.72,35.992 153.552,34.322 155.636,34.322 C157.722,34.322 160.014,33.695 161.473,33.695 C162.935,33.695 169.815,34.112 170.864,33.905 C171.904,33.695 173.78,34.322 175.45,34.947 C177.113,35.571 183.579,37.03 184,37.864 C184.418,38.7 185.25,41.413 184.208,43.287 C183.16,45.165 182.956,50.585 180.868,48.915 C178.784,47.25 177.741,47.877 178.364,49.75 C178.993,51.628 181.078,59.345 179.615,62.89 C178.161,66.433 176.909,65.598 177.321,71.23 C177.741,76.86 175.862,82.907 177.113,87.284 C178.364,91.663 179.615,95.832 177.741,100.213 C176.907,102.16 175.665,104.38 174.521,106.427 C175.084,108.31 175.5,110.146 175.663,111.399 C175.967,113.65 175.488,117.237 175.22,120.178 L174.096,120.178 C173.988,121.314 173.905,122.372 173.905,123.23 C173.905,126.268 167.42,132.545 165.807,134.77 C164.368,136.75 162.293,135.701 159.719,135.437 C159.721,135.324 159.724,135.214 159.73,135.101 C159.086,135.118 158.532,135.249 158.033,135.442 C155.476,135.756 154.242,137.769 154.058,139.633 C153.851,141.657 162.765,141.858 166.215,141.858 C169.501,141.858 170.398,141.851 172.248,141.321 C172.678,141.235 173.121,141.119 173.645,140.961 C175.663,140.353 176.074,140.353 176.074,138.33 C176.074,137.711 176.278,137.375 176.596,137.172 C177.293,137.133 178.126,137.169 178.97,137.002 C179.116,136.97 179.251,136.902 179.377,136.812 C179.622,136.792 179.872,136.762 180.121,136.711 C182.142,136.306 182.142,130.027 183.97,125.775 C185.792,121.519 186.605,118.483 187.612,116.052 C188.626,113.623 183.97,106.331 183.762,103.902 C183.564,101.473 187.007,100.054 188.825,95.195 C191.662,97.423 194.298,98.842 197.332,99.851 C200.365,100.864 203.816,105.119 206.245,107.754 C208.674,110.384 214.352,113.829 216.979,116.46 C219.616,119.092 221.434,121.725 223.456,124.762 C225.483,127.798 225.892,132.863 225.892,136.306 C225.892,139.749 224.271,140.353 222.65,141.369 C221.027,142.379 218.392,144.2 216.57,146.43 C214.749,148.66 221.434,149.269 225.078,149.269 C228.717,149.269 231.562,148.66 232.577,145.824 C233.582,142.989 236.624,138.127 236.624,132.863 C236.624,127.594 234.19,126.789 232.577,124.158 C230.954,121.519 230.747,118.483 229.942,114.231 C229.126,109.977 222.241,104.107 219.407,101.272 C216.57,98.433 218.999,97.017 218.999,94.181 C218.999,91.347 217.178,89.524 214.551,85.881 C211.916,82.235 211.717,75.55 211.308,71.499 C210.9,67.451 213.736,65.831 214.749,62.591 C215.767,59.347 215.158,55.299 217.585,54.084 C220.013,52.87 232.367,52.263 237.234,51.653 C242.088,51.049 246.346,45.782 248.972,43.353 C251.609,40.923 247.76,39.91 243.51,40.923" id="Fill-3" fill="#1A1919"></path>
            </g>
            
            <path d="M48.081,70.228 C51.125,72.458 56.187,77.519 58.616,78.942 C61.042,80.354 67.927,87.04 70.962,88.255 C74.006,89.47 77.238,91.897 83.118,91.897 C88.988,91.897 100.945,92.707 109.449,92.707 C117.947,92.707 130.3,92.302 138,92.302 C145.69,92.302 165.745,90.685 169.994,91.293 C174.252,91.897 181.544,95.137 186.198,96.554 C190.854,97.977 197.131,103.036 200.782,104.859 C202.412,105.675 204.406,107.341 206.456,108.971 L206.456,0.782 L43.379,0.782 L43.379,69.277 C44.968,69.011 46.498,69.068 48.081,70.228" id="Fill-6" fill="#00A3DA"></path>
            <path d="M168.318,63.409 L168.318,68.272 L184.825,68.272 L184.825,71.927 L168.378,71.927 C168.406,75.671 170.617,76.85 174.125,76.85 L184.825,76.85 L184.825,80.476 L173.918,80.476 C167.197,80.476 162.894,77.587 162.894,70.454 L162.894,59.783 L184.825,59.783 L184.825,63.409 L168.318,63.409 Z M129.411,80.476 L130.355,80.447 L130.326,63.821 L137.873,80.476 L144.061,80.476 L151.371,63.969 L151.371,80.476 L156.501,80.476 L156.501,59.783 L148.011,59.783 L140.821,75.878 L133.628,59.783 L125.079,59.783 L125.079,76.674 C125.079,78.826 127.142,80.416 129.411,80.447 L129.411,80.476 Z M105.631,62.996 C110.522,62.996 113.323,65.119 113.323,70.13 C113.323,75.141 110.522,77.264 105.631,77.264 C100.617,77.264 97.934,74.964 97.934,69.953 C97.934,65.148 101.001,62.996 105.631,62.996 L105.631,62.996 Z M119.249,70.13 C119.249,61.493 113.058,59.43 105.631,59.43 C98.467,59.43 91.953,61.67 91.953,69.924 C91.953,78.737 97.906,80.828 105.631,80.828 C113.058,80.828 119.249,78.766 119.249,70.13 L119.249,70.13 Z M80.338,59.783 L85.939,59.783 L85.939,80.476 L80.338,80.476 L80.338,71.958 L69.193,71.958 L69.193,80.476 L67.604,80.476 C65.391,80.476 63.596,78.62 63.596,76.378 L63.596,59.783 L69.193,59.783 L69.193,68.272 L80.338,68.272 L80.338,59.783 L80.338,59.783 Z" id="Fill-7" fill="#FFFFFE"></path>
            <path d="M173.333,43.705 L173.333,47.206 L185.213,47.206 L185.213,49.837 L173.376,49.837 C173.398,52.531 174.988,53.38 177.514,53.38 L185.213,53.38 L185.213,55.989 L177.364,55.989 C172.526,55.989 169.428,53.911 169.428,48.776 L169.428,41.096 L185.213,41.096 L185.213,43.705 L173.333,43.705 Z M165.059,41.096 L165.059,43.705 L155.937,43.705 C152.52,43.705 150.885,45.254 150.885,48.649 C150.885,51.872 152.753,53.401 155.937,53.401 L160.9,53.401 L160.9,49.858 L158.523,49.858 C157.018,49.858 156.189,48.564 155.979,47.206 L165.059,47.206 L165.059,55.989 L155.937,55.989 C151.014,55.989 146.559,54.632 146.559,48.776 C146.559,42.749 150.548,41.096 155.937,41.096 L165.059,41.096 Z M133.85,53.846 C131.05,53.846 129.29,53.274 129.29,50.155 L129.29,41.096 L125.236,41.096 L125.236,50.218 C125.236,51.491 125.367,53.295 126.382,54.185 C128.249,55.883 131.453,56.222 133.85,56.222 C136.269,56.222 139.472,55.883 141.34,54.185 C142.358,53.274 142.484,51.512 142.484,50.218 L142.484,41.096 L138.434,41.096 L138.434,50.155 C138.434,53.274 136.673,53.846 133.85,53.846 L133.85,53.846 Z M114.439,43.705 C111.807,43.705 109.133,44.045 109.029,47.206 L121.248,47.206 L121.248,49.837 L109.029,49.837 L109.029,55.989 L107.881,55.989 C106.376,55.989 105.23,54.8 104.975,53.359 L104.975,49.136 C104.975,47.461 105.081,46.209 105.316,45.382 C106.396,41.371 111.424,41.096 114.82,41.096 L121.248,41.096 L121.248,43.705 L114.439,43.705 Z M88.577,43.705 L88.577,47.206 L100.459,47.206 L100.459,49.837 L88.618,49.837 C88.639,52.531 90.231,53.38 92.755,53.38 L100.459,53.38 L100.459,55.989 L92.607,55.989 C87.772,55.989 84.674,53.911 84.674,48.776 L84.674,41.096 L100.459,41.096 L100.459,43.705 L88.577,43.705 Z M75.382,43.854 C76.164,44.109 76.78,44.596 76.78,45.594 C76.78,46.612 76.164,47.1 75.382,47.333 C74.618,47.567 73.747,47.524 72.94,47.524 L67.701,47.524 L67.701,43.621 L72.94,43.621 C73.747,43.621 74.618,43.621 75.382,43.854 L75.382,43.854 Z M77.227,55.989 L81.85,55.989 L76.845,49.752 C79.201,49.348 81.066,48.119 81.066,45.551 C81.066,41.605 77.119,41.096 73.98,41.096 L63.565,41.096 L63.565,53.104 C63.565,54.695 64.942,55.989 66.511,55.989 L67.701,55.989 L67.701,50.113 L72.794,50.113 L77.227,55.989 L77.227,55.989 Z" id="Fill-8" fill="#FFFFFE"></path>
            <path d="M188.396,19.058 L188.396,21.77 C189.074,21.712 189.634,21.506 190.135,21.152 C190.814,20.709 191.136,20.09 191.136,19.295 L191.136,15.668 L186.716,15.668 L186.716,19.058 L188.396,19.058 Z M163.695,22.065 C163.695,19.678 166.643,19.295 168.468,19.295 L183.03,19.295 L183.03,15.668 L167.615,15.668 C163.194,15.668 157.946,16.347 157.946,21.977 C157.946,27.401 162.928,27.843 167.145,27.843 L174.069,27.843 C175.81,27.843 178.521,27.99 178.521,30.319 C178.521,32.619 175.368,32.736 173.688,32.736 L158.949,32.736 L158.949,36.363 L174.6,36.363 C178.964,36.363 184.272,35.714 184.272,30.142 C184.272,24.836 179.73,24.158 175.456,24.158 L167.674,24.158 C166.229,24.158 163.695,24.01 163.695,22.065 L163.695,22.065 Z M151.785,15.668 L151.785,19.295 L139.11,19.295 C134.364,19.295 132.094,21.447 132.094,26.163 C132.094,30.643 134.688,32.765 139.11,32.765 L146.008,32.765 L146.008,27.843 L142.705,27.843 C140.612,27.843 139.464,26.045 139.169,24.158 L151.785,24.158 L151.785,36.363 L139.11,36.363 C132.271,36.363 126.082,34.475 126.082,26.34 C126.082,17.968 131.625,15.668 139.11,15.668 L151.785,15.668 Z M107.895,18.882 C112.786,18.882 115.588,21.004 115.588,26.015 C115.588,31.026 112.786,33.149 107.895,33.149 C102.881,33.149 100.2,30.849 100.2,25.838 C100.2,21.034 103.267,18.882 107.895,18.882 L107.895,18.882 Z M121.513,26.015 C121.513,17.378 115.322,15.315 107.895,15.315 C100.731,15.315 94.217,17.556 94.217,25.809 C94.217,34.622 100.171,36.716 107.895,36.716 C115.322,36.716 121.513,34.652 121.513,26.015 L121.513,26.015 Z M76.501,32.736 C81.57,32.736 83.605,31.263 83.605,26.015 C83.605,20.797 81.54,19.295 76.501,19.295 L69.513,19.295 L69.513,32.736 L76.501,32.736 Z M76.618,15.668 C84.106,15.668 89.647,17.938 89.647,26.369 C89.647,31.823 86.67,35.094 81.392,36.038 C79.89,36.333 78.297,36.363 76.795,36.363 L68.011,36.363 C65.594,36.363 63.941,34.269 63.941,31.97 L63.941,15.668 L76.618,15.668 L76.618,15.668 Z" id="Fill-9" fill="#FFFFFE"></path>
        </g>
    </g>
</svg>